Results
version=1
nRows=4
nColumns=213
inDegrees=yes
endheader
time	platform_rx	platform_ry	platform_rz	platform_ty	pelvis_tilt	pelvis_list	pelvis_rotation	pelvis_tx	pelvis_ty	pelvis_tz	hip_flexion_r	hip_adduction_r	hip_rotation_r	knee_angle_r	knee_angle_r_beta	ankle_angle_r	subtalar_angle_r	mtp_angle_r	hip_flexion_l	hip_adduction_l	hip_rotation_l	knee_angle_l	knee_angle_l_beta	ankle_angle_l	subtalar_angle_l	mtp_angle_l	lumbar_extension	lumbar_bending	lumbar_rotation	arm_flex_r	arm_add_r	arm_rot_r	elbow_flex_r	pro_sup_r	wrist_flex_r	wrist_dev_r	arm_flex_l	arm_add_l	arm_rot_l	elbow_flex_l	pro_sup_l	wrist_flex_l	wrist_dev_l	platform_rx_u	platform_ry_u	platform_rz_u	platform_ty_u	pelvis_tilt_u	pelvis_list_u	pelvis_rotation_u	pelvis_tx_u	pelvis_ty_u	pelvis_tz_u	hip_flexion_r_u	hip_adduction_r_u	hip_rotation_r_u	knee_angle_r_u	knee_angle_r_beta_u	ankle_angle_r_u	subtalar_angle_r_u	mtp_angle_r_u	hip_flexion_l_u	hip_adduction_l_u	hip_rotation_l_u	knee_angle_l_u	knee_angle_l_beta_u	ankle_angle_l_u	subtalar_angle_l_u	mtp_angle_l_u	lumbar_extension_u	lumbar_bending_u	lumbar_rotation_u	arm_flex_r_u	arm_add_r_u	arm_rot_r_u	elbow_flex_r_u	pro_sup_r_u	wrist_flex_r_u	wrist_dev_r_u	arm_flex_l_u	arm_add_l_u	arm_rot_l_u	elbow_flex_l_u	pro_sup_l_u	wrist_flex_l_u	wrist_dev_l_u	addbrev_r.activation	addlong_r.activation	addlong_r.fiber_length	addmagDist_r.activation	addmagIsch_r.activation	addmagIsch_r.fiber_length	addmagMid_r.activation	addmagProx_r.activation	bflh_r.activation	bflh_r.fiber_length	bfsh_r.activation	edl_r.activation	edl_r.fiber_length	ehl_r.activation	ehl_r.fiber_length	fdl_r.activation	fdl_r.fiber_length	fhl_r.activation	fhl_r.fiber_length	gaslat_r.activation	gaslat_r.fiber_length	gasmed_r.activation	gasmed_r.fiber_length	glmax1_r.activation	glmax2_r.activation	glmax3_r.activation	glmed1_r.activation	glmed2_r.activation	glmed3_r.activation	glmin1_r.activation	glmin2_r.activation	glmin3_r.activation	glmin3_r.fiber_length	grac_r.activation	iliacus_r.activation	perbrev_r.activation	perbrev_r.fiber_length	perlong_r.activation	perlong_r.fiber_length	piri_r.activation	piri_r.fiber_length	psoas_r.activation	recfem_r.activation	recfem_r.fiber_length	sart_r.activation	semimem_r.activation	semimem_r.fiber_length	semiten_r.activation	semiten_r.fiber_length	soleus_r.activation	soleus_r.fiber_length	tfl_r.activation	tfl_r.fiber_length	tibant_r.activation	tibant_r.fiber_length	tibpost_r.activation	tibpost_r.fiber_length	vasint_r.activation	vasint_r.fiber_length	vaslat_r.activation	vaslat_r.fiber_length	vasmed_r.activation	vasmed_r.fiber_length	addbrev_l.activation	addlong_l.activation	addlong_l.fiber_length	addmagDist_l.activation	addmagIsch_l.activation	addmagIsch_l.fiber_length	addmagMid_l.activation	addmagProx_l.activation	bflh_l.activation	bflh_l.fiber_length	bfsh_l.activation	edl_l.activation	edl_l.fiber_length	ehl_l.activation	ehl_l.fiber_length	fdl_l.activation	fdl_l.fiber_length	fhl_l.activation	fhl_l.fiber_length	gaslat_l.activation	gaslat_l.fiber_length	gasmed_l.activation	gasmed_l.fiber_length	glmax1_l.activation	glmax2_l.activation	glmax3_l.activation	glmed1_l.activation	glmed2_l.activation	glmed3_l.activation	glmin1_l.activation	glmin2_l.activation	glmin3_l.activation	glmin3_l.fiber_length	grac_l.activation	iliacus_l.activation	perbrev_l.activation	perbrev_l.fiber_length	perlong_l.activation	perlong_l.fiber_length	piri_l.activation	piri_l.fiber_length	psoas_l.activation	recfem_l.activation	recfem_l.fiber_length	sart_l.activation	semimem_l.activation	semimem_l.fiber_length	semiten_l.activation	semiten_l.fiber_length	soleus_l.activation	soleus_l.fiber_length	tfl_l.activation	tfl_l.fiber_length	tibant_l.activation	tibant_l.fiber_length	tibpost_l.activation	tibpost_l.fiber_length	vasint_l.activation	vasint_l.fiber_length	vaslat_l.activation	vaslat_l.fiber_length	vasmed_l.activation	vasmed_l.fiber_length
      0.00302589	     20.00000000	     -0.00000000	      0.00000000	      0.25000000	    -28.01488810	     -0.00000001	     -0.00000000	     -0.03001054	      0.42313275	     -0.00000000	    119.91862738	    -18.06620915	      8.10037687	    124.95168450	    124.95168450	     33.49478154	      0.00000000	      0.00000000	    119.91862732	    -18.06620580	      8.10037692	    124.95168474	    124.95168474	     33.49478135	     -0.00000000	     -0.00000000	     -0.11524837	      0.00000001	      0.00000000	     89.95128772	     -0.00118358	     89.82734381	      0.15988981	      0.15626239	     -0.00000000	      0.00000000	     89.95132328	     -0.00118134	     89.81988247	      0.15988962	      0.15626242	     -0.00000000	      0.00000000	     -0.00000000	     -0.00000000	      0.00000000	     -0.00000000	     58.14645185	     -0.00000540	     -0.00000132	     -0.00710611	      0.08781177	     -0.00000001	    -53.94909670	     -2.16313775	     24.34727767	    -32.48893124	    -32.48893124	   -615.86848109	      0.00000000	      0.00000000	    -53.94909100	     -2.16313283	     24.34728978	    -32.48892972	    -32.48892972	   -615.86847950	     -0.00000000	     -0.00000000	    -76.08086864	      0.00000778	      0.00000104	     18.47521825	     -0.75963855	     -0.37888123	      2.11391223	     -0.25417544	     -0.00000000	      0.00000000	     18.47510502	     -0.75960816	     -0.37888917	      2.11378660	     -0.25415634	     -0.00000000	      0.00000000	      0.01000000	      0.01000000	      0.11008067	      0.01000000	      0.01000000	      0.23161437	      0.01000000	      0.01000000	      0.01000000	      0.12084779	      0.01000000	      0.01000000	      0.04847268	      0.01000000	      0.05558102	      0.01000000	      0.04779261	      0.01000000	      0.05686683	      0.01000000	      0.04871426	      0.01000000	      0.03192537	      0.01000000	      0.01000000	      0.01000000	      0.01000000	      0.01000000	      0.01000000	      0.01000000	      0.01000000	      0.01000000	      0.04085370	      0.01000000	      0.01000000	      0.01000000	      0.05104184	      0.01000000	      0.05794716	      0.01000000	      0.03241662	      0.01000000	      0.01000000	      0.05293716	      0.01000000	      0.01000000	      0.07476966	      0.01000000	      0.22655616	      0.01000000	      0.06281327	      0.01000000	      0.02401564	      0.01000000	      0.04156489	      0.01000000	      0.04234220	      0.01000000	      0.14625159	      0.01000000	      0.14249054	      0.01000000	      0.13929587	      0.01000000	      0.01000000	      0.11008067	      0.01000000	      0.01000000	      0.23161437	      0.01000000	      0.01000000	      0.01000000	      0.12084779	      0.01000000	      0.01000000	      0.04847268	      0.01000000	      0.05558102	      0.01000000	      0.04779261	      0.01000000	      0.05686683	      0.01000000	      0.04871426	      0.01000000	      0.03192537	      0.01000000	      0.01000000	      0.01000000	      0.01000000	      0.01000000	      0.01000000	      0.01000000	      0.01000000	      0.01000000	      0.04085370	      0.01000000	      0.01000000	      0.01000000	      0.05104184	      0.01000000	      0.05794716	      0.01000000	      0.03241662	      0.01000000	      0.01000000	      0.05293716	      0.01000000	      0.01000000	      0.07476966	      0.01000000	      0.22655616	      0.01000000	      0.06281327	      0.01000000	      0.02401564	      0.01000000	      0.04156489	      0.01000000	      0.04234220	      0.01000000	      0.14625159	      0.01000000	      0.14249054	      0.01000000	      0.13929587
      0.00363117	     20.00000000	     -0.00000000	      0.00000000	      0.25000000	    -27.97619374	     -0.00000001	     -0.00000000	     -0.03001531	      0.42319124	     -0.00000000	    119.88267277	    -18.06765270	      8.11650225	    124.92990396	    124.92990396	     33.08626534	      0.00000000	      0.00000000	    119.88267272	    -18.06764935	      8.11650231	    124.92990421	    124.92990421	     33.08626515	     -0.00000000	     -0.00000000	     -0.16588220	      0.00000002	      0.00000000	     89.96358612	     -0.00168912	     89.82709187	      0.16129660	      0.15609231	     -0.00000000	      0.00000000	     89.96362160	     -0.00168686	     89.81963052	      0.16129633	      0.15609235	     -0.00000000	      0.00000000	     -0.00000000	     -0.00000000	      0.00000000	     -0.00000000	     69.70434561	     -0.00000646	     -0.00000157	     -0.00865764	      0.10543663	     -0.00000001	    -64.85920512	     -2.60750459	     28.91536512	    -39.51882094	    -39.51882094	   -733.66213328	      0.00000000	      0.00000000	    -64.85919830	     -2.60749870	     28.91537960	    -39.51881912	    -39.51881912	   -733.66213133	     -0.00000000	     -0.00000000	    -91.22037984	      0.00000932	      0.00000125	     22.16128446	     -0.91078453	     -0.45362049	      2.53445766	     -0.30773811	     -0.00000000	      0.00000000	     22.16114877	     -0.91074839	     -0.45362999	      2.53430792	     -0.30771537	      0.00000000	     -0.00000000	      0.01000000	      0.01000000	      0.11006620	      0.01000000	      0.01000000	      0.23158619	      0.01000000	      0.01000000	      0.01000000	      0.12084773	      0.01000000	      0.01000000	      0.04865877	      0.01000000	      0.05580179	      0.01000000	      0.04778927	      0.01000000	      0.05685006	      0.01000000	      0.04862833	      0.01000000	      0.03185511	      0.01000000	      0.01000000	      0.01000000	      0.01000000	      0.01000000	      0.01000000	      0.01000000	      0.01000000	      0.01000000	      0.04084184	      0.01000000	      0.01000000	      0.01000000	      0.05102937	      0.01000000	      0.05793080	      0.01000000	      0.03240913	      0.01000000	      0.01000000	      0.05293692	      0.01000000	      0.01000000	      0.07476957	      0.01000000	      0.22655433	      0.01000000	      0.06269844	      0.01000000	      0.02401564	      0.01000000	      0.04181222	      0.01000000	      0.04233426	      0.01000000	      0.14624331	      0.01000000	      0.14248267	      0.01000000	      0.13928834	      0.01000000	      0.01000000	      0.11006619	      0.01000000	      0.01000000	      0.23158619	      0.01000000	      0.01000000	      0.01000000	      0.12084773	      0.01000000	      0.01000000	      0.04865877	      0.01000000	      0.05580179	      0.01000000	      0.04778927	      0.01000000	      0.05685006	      0.01000000	      0.04862833	      0.01000000	      0.03185511	      0.01000000	      0.01000000	      0.01000000	      0.01000000	      0.01000000	      0.01000000	      0.01000000	      0.01000000	      0.01000000	      0.04084184	      0.01000000	      0.01000000	      0.01000000	      0.05102937	      0.01000000	      0.05793080	      0.01000000	      0.03240913	      0.01000000	      0.01000000	      0.05293692	      0.01000000	      0.01000000	      0.07476957	      0.01000000	      0.22655433	      0.01000000	      0.06269844	      0.01000000	      0.02401564	      0.01000000	      0.04181222	      0.01000000	      0.04233426	      0.01000000	      0.14624331	      0.01000000	      0.14248267	      0.01000000	      0.13928834
      0.00423645	     20.00000000	     -0.00000000	      0.00000000	      0.25000000	    -27.93051083	     -0.00000002	     -0.00000000	     -0.03002103	      0.42326040	     -0.00000000	    119.84010288	    -18.06936642	      8.13535659	    124.90379431	    124.90379431	     32.60700885	      0.00000000	      0.00000000	    119.84010284	    -18.06936307	      8.13535666	    124.90379456	    124.90379456	     32.60700866	     -0.00000000	     -0.00000000	     -0.22567190	      0.00000002	      0.00000000	     89.97811543	     -0.00228617	     89.82679461	      0.16295803	      0.15589011	     -0.00000000	      0.00000000	     89.97815082	     -0.00228389	     89.81933325	      0.16295766	      0.15589016	      0.00000000	      0.00000000	     -0.00000000	     -0.00000000	      0.00000000	     -0.00000000	     81.23975402	     -0.00000753	     -0.00000182	     -0.01026481	      0.12309340	     -0.00000001	    -75.80874488	     -3.05569146	     33.36367121	    -46.79750870	    -46.79750870	   -849.61963292	      0.00000000	      0.00000000	    -75.80873694	     -3.05568461	     33.36368808	    -46.79750657	    -46.79750657	   -849.61963061	     -0.00000000	     -0.00000000	   -106.33583047	      0.00001086	      0.00000147	     25.84728337	     -1.06208033	     -0.52868714	      2.95544068	     -0.36008644	     -0.00000000	      0.00000000	     25.84712517	     -1.06203830	     -0.52869821	      2.95526642	     -0.36005999	      0.00000000	     -0.00000000	      0.01000000	      0.01000000	      0.11004825	      0.01000000	      0.01000000	      0.23158740	      0.01000000	      0.01000000	      0.01000000	      0.12084769	      0.01000000	      0.01000000	      0.04888881	      0.01000000	      0.05607076	      0.01000000	      0.04778468	      0.01000000	      0.05682667	      0.01000000	      0.04852644	      0.01000000	      0.03177733	      0.01000000	      0.01000000	      0.01000000	      0.01000000	      0.01000000	      0.01000000	      0.01000000	      0.01000000	      0.01000000	      0.04082720	      0.01000000	      0.01000000	      0.01000000	      0.05101302	      0.01000000	      0.05790834	      0.01000000	      0.03239951	      0.01000000	      0.01000000	      0.05293657	      0.01000000	      0.01000000	      0.07476948	      0.01000000	      0.22655219	      0.01000000	      0.06256010	      0.01000000	      0.02401564	      0.01000000	      0.04210995	      0.01000000	      0.04232338	      0.01000000	      0.14623325	      0.01000000	      0.14247309	      0.01000000	      0.13927919	      0.01000000	      0.01000000	      0.11004825	      0.01000000	      0.01000000	      0.23158740	      0.01000000	      0.01000000	      0.01000000	      0.12084769	      0.01000000	      0.01000000	      0.04888881	      0.01000000	      0.05607076	      0.01000000	      0.04778468	      0.01000000	      0.05682667	      0.01000000	      0.04852644	      0.01000000	      0.03177733	      0.01000000	      0.01000000	      0.01000000	      0.01000000	      0.01000000	      0.01000000	      0.01000000	      0.01000000	      0.01000000	      0.04082720	      0.01000000	      0.01000000	      0.01000000	      0.05101302	      0.01000000	      0.05790834	      0.01000000	      0.03239951	      0.01000000	      0.01000000	      0.05293657	      0.01000000	      0.01000000	      0.07476948	      0.01000000	      0.22655219	      0.01000000	      0.06256010	      0.01000000	      0.02401564	      0.01000000	      0.04210995	      0.01000000	      0.04232338	      0.01000000	      0.14623325	      0.01000000	      0.14247310	      0.01000000	      0.13927919
      0.00499242	     20.00000000	     -0.00000000	      0.00000000	      0.25000000	    -27.86366241	     -0.00000002	     -0.00000001	     -0.03002957	      0.42336180	     -0.00000000	    119.77761027	    -18.07189001	      8.16262291	    124.86486206	    124.86486206	     31.91078206	      0.00000000	      0.00000000	    119.77761024	    -18.07188665	      8.16262300	    124.86486231	    124.86486231	     31.91078187	     -0.00000000	     -0.00000000	     -0.31318096	      0.00000003	      0.00000000	     89.99939502	     -0.00316060	     89.82635927	      0.16539129	      0.15559404	     -0.00000000	      0.00000000	     89.99943029	     -0.00315828	     89.81889790	      0.16539077	      0.15559412	      0.00000000	      0.00000000	     -0.00000000	     -0.00000000	      0.00000000	     -0.00000000	     95.60489359	     -0.00000886	     -0.00000211	     -0.01236051	      0.14517929	     -0.00000001	    -89.52809261	     -3.62244220	     38.73679976	    -56.27883045	    -56.27883045	   -991.83508588	      0.00000000	     -0.00000000	    -89.52808327	     -3.62243412	     38.73681961	    -56.27882794	    -56.27882794	   -991.83508308	     -0.00000000	     -0.00000000	   -125.16734676	      0.00001278	      0.00000173	     30.44943657	     -1.25134338	     -0.62318486	      3.48211811	     -0.42263549	     -0.00000000	      0.00000000	     30.44925015	     -1.25129368	     -0.62319792	      3.48191228	     -0.42260422	      0.00000000	     -0.00000000	      0.01000000	      0.01000000	      0.11002090	      0.01000000	      0.01000000	      0.23150312	      0.01000000	      0.01000000	      0.01000000	      0.12084771	      0.01000000	      0.01000000	      0.04923645	      0.01000000	      0.05647314	      0.01000000	      0.04777689	      0.01000000	      0.05678614	      0.01000000	      0.04839348	      0.01000000	      0.03167939	      0.01000000	      0.01000000	      0.01000000	      0.01000000	      0.01000000	      0.01000000	      0.01000000	      0.01000000	      0.01000000	      0.04080504	      0.01000000	      0.01000000	      0.01000000	      0.05098662	      0.01000000	      0.05787027	      0.01000000	      0.03238438	      0.01000000	      0.01000000	      0.05293592	      0.01000000	      0.01000000	      0.07476938	      0.01000000	      0.22654912	      0.01000000	      0.06235413	      0.01000000	      0.02401564	      0.01000000	      0.04255201	      0.01000000	      0.04230479	      0.01000000	      0.14621809	      0.01000000	      0.14245863	      0.01000000	      0.13926539	      0.01000000	      0.01000000	      0.11002090	      0.01000000	      0.01000000	      0.23150312	      0.01000000	      0.01000000	      0.01000000	      0.12084771	      0.01000000	      0.01000000	      0.04923645	      0.01000000	      0.05647314	      0.01000000	      0.04777689	      0.01000000	      0.05678614	      0.01000000	      0.04839348	      0.01000000	      0.03167939	      0.01000000	      0.01000000	      0.01000000	      0.01000000	      0.01000000	      0.01000000	      0.01000000	      0.01000000	      0.01000000	      0.04080504	      0.01000000	      0.01000000	      0.01000000	      0.05098662	      0.01000000	      0.05787027	      0.01000000	      0.03238438	      0.01000000	      0.01000000	      0.05293592	      0.01000000	      0.01000000	      0.07476938	      0.01000000	      0.22654912	      0.01000000	      0.06235413	      0.01000000	      0.02401564	      0.01000000	      0.04255201	      0.01000000	      0.04230479	      0.01000000	      0.14621809	      0.01000000	      0.14245863	      0.01000000	      0.13926539
